<svg width="15" height="14" viewBox="0 0 15 14" fill="none" xmlns="http://www.w3.org/2000/svg">
<path opacity="0.67" d="M8.32001 2.08008H10.09C10.6593 2.08037 11.2184 2.2301 11.7115 2.5144C12.2047 2.79871 12.6145 3.20761 12.9 3.70007L13.79 5.22998C14.0753 5.72404 14.2255 6.28449 14.2255 6.85498C14.2255 7.42547 14.0753 7.98592 13.79 8.47998L12.9 10.01C12.6166 10.505 12.2075 10.9164 11.7141 11.2026C11.2206 11.4888 10.6604 11.6397 10.09 11.64H8.32001C7.7496 11.6397 7.18939 11.4888 6.69598 11.2026C6.20258 10.9164 5.79345 10.505 5.51001 10.01L4.63 8.47998C4.34476 7.98592 4.19458 7.42547 4.19458 6.85498C4.19458 6.28449 4.34476 5.72404 4.63 5.22998L5.51001 3.70007C5.7955 3.20761 6.20534 2.79871 6.69849 2.5144C7.19163 2.2301 7.75078 2.08037 8.32001 2.08008Z" fill="url(#paint0_radial_591_22)" stroke="#EF2FFE" stroke-width="0.5" stroke-miterlimit="10"/>
<path opacity="0.22" d="M5.14001 0.330079H6.91003C7.48045 0.330374 8.04065 0.481245 8.53406 0.767457C9.02747 1.05367 9.43659 1.46508 9.72003 1.96008L10.6 3.48999C10.8854 3.9822 11.0356 4.54104 11.0356 5.10999C11.0356 5.67893 10.8854 6.23777 10.6 6.72998L9.72003 8.26001C9.43659 8.75501 9.02747 9.16643 8.53406 9.45264C8.04065 9.73885 7.48045 9.88972 6.91003 9.89002H5.14001C4.56811 9.89046 4.00625 9.74006 3.51111 9.45386C3.01597 9.16766 2.60508 8.7558 2.32001 8.26001L1.44 6.72998C1.15465 6.23777 1.00439 5.67893 1.00439 5.10999C1.00439 4.54104 1.15465 3.9822 1.44 3.48999L2.32001 1.96008C2.60508 1.46429 3.01597 1.05243 3.51111 0.766236C4.00625 0.480038 4.56811 0.329633 5.14001 0.330079Z" fill="white" stroke="white" stroke-width="0.25" stroke-miterlimit="10"/>
<path opacity="0.6" d="M5.50989 3.70007H7.27991C7.85032 3.70037 8.41052 3.85124 8.90393 4.13745C9.39734 4.42366 9.80646 4.83508 10.0899 5.33008L10.9699 6.85999C11.2552 7.35405 11.4053 7.91449 11.4053 8.48499C11.4053 9.05548 11.2552 9.61592 10.9699 10.11L10.0899 11.64C9.80441 12.1325 9.39457 12.5414 8.90143 12.8257C8.40828 13.11 7.84914 13.2597 7.27991 13.26H5.50989C4.94066 13.2597 4.38151 13.11 3.88837 12.8257C3.39522 12.5414 2.98538 12.1325 2.69989 11.64L1.80988 10.11C1.52463 9.61592 1.37451 9.05548 1.37451 8.48499C1.37451 7.91449 1.52463 7.35405 1.80988 6.85999L2.69989 5.33008C2.98334 4.83508 3.39246 4.42366 3.88586 4.13745C4.37927 3.85124 4.93948 3.70037 5.50989 3.70007Z" stroke="white" stroke-width="0.5" stroke-linecap="round" stroke-linejoin="round"/>
<defs>
<radialGradient id="paint0_radial_591_22" cx="0" cy="0" r="1" gradientUnits="userSpaceOnUse" gradientTransform="translate(9.21002 6.86005) scale(5.30003 5.29996)">
<stop stop-color="#B01EFF"/>
<stop offset="1" stop-color="#05CCFF"/>
</radialGradient>
</defs>
</svg>
