<svg width="16" height="16" viewBox="0 0 16 16" fill="none" xmlns="http://www.w3.org/2000/svg">
<path d="M9.83008 5.59001C9.75364 5.52975 9.65698 5.50115 9.56006 5.51005H8.1001L9.47009 3.98002L9.6001 3.83012L9.6701 3.75004L9.72009 3.65007C9.72928 3.60722 9.72928 3.56291 9.72009 3.52006C9.72474 3.4703 9.71495 3.42023 9.69189 3.3759C9.66884 3.33156 9.63349 3.29483 9.59009 3.27006C9.4742 3.21724 9.34727 3.19328 9.22009 3.20011H7.52008C7.4264 3.1928 7.33343 3.22136 7.26007 3.28007C7.23085 3.30437 7.20755 3.33501 7.19196 3.36967C7.17636 3.40433 7.16892 3.44204 7.1701 3.48002C7.1701 3.60002 7.1701 3.67011 7.2901 3.70011C7.40627 3.71542 7.52391 3.71542 7.64008 3.70011H8.75006L8.57007 3.93009L8.2901 4.25004L7.90009 4.67008L7.45007 5.16007C7.30007 5.34007 7.19008 5.45005 7.14008 5.51005C7.08314 5.57114 7.05151 5.65152 7.05151 5.73503C7.05151 5.81853 7.08314 5.89904 7.14008 5.96012C7.23135 6.02987 7.34584 6.06203 7.46008 6.05009H9.46008C9.55691 6.05798 9.65321 6.02937 9.7301 5.97001C9.75932 5.94571 9.78262 5.91507 9.79822 5.88041C9.81381 5.84576 9.82125 5.80805 9.82007 5.77006C9.84116 5.71238 9.84465 5.64967 9.83008 5.59001Z" fill="white"/>
<path d="M12.34 6.96008C12.285 6.91972 12.2182 6.89857 12.15 6.90002H11.09L12.09 5.80005L12.19 5.70007L12.2401 5.61999C12.2446 5.59688 12.2446 5.57316 12.2401 5.55005C12.2449 5.52024 12.2449 5.48988 12.2401 5.46008C12.2479 5.42431 12.2432 5.38688 12.2269 5.35412C12.2105 5.32136 12.1834 5.2952 12.15 5.28003C12.0699 5.23879 11.9797 5.22139 11.89 5.22998H10.65C10.5826 5.22115 10.5144 5.23915 10.46 5.28003C10.4401 5.29948 10.4245 5.32292 10.4142 5.34875C10.4039 5.37458 10.399 5.40225 10.4 5.43005C10.3959 5.46166 10.4013 5.49371 10.4156 5.52221C10.4298 5.55072 10.4523 5.5743 10.48 5.58996C10.5627 5.60475 10.6474 5.60475 10.73 5.58996H11.54C11.5007 5.64956 11.4572 5.7064 11.41 5.76001L11.2 5.98999L10.9301 6.31006L10.62 6.67004C10.5 6.79004 10.43 6.88004 10.39 6.92004C10.3543 6.96574 10.335 7.0221 10.335 7.08008C10.335 7.13806 10.3543 7.19429 10.39 7.23999C10.4561 7.28878 10.5385 7.31032 10.62 7.30005H12.08C12.1134 7.30498 12.1475 7.30303 12.1801 7.29443C12.2128 7.28584 12.2434 7.27073 12.27 7.25C12.2922 7.2319 12.3101 7.20908 12.3222 7.1831C12.3343 7.15713 12.3404 7.12864 12.34 7.09997C12.3539 7.05434 12.3539 7.00571 12.34 6.96008Z" fill="white"/>
<path d="M15.65 5.20012C15.5815 5.14682 15.4968 5.11851 15.41 5.12004H14.09L15.33 3.74004L15.44 3.61003L15.52 3.52006V3.4301C15.5248 3.39024 15.5248 3.34996 15.52 3.3101C15.5248 3.26558 15.5158 3.22063 15.4944 3.18132C15.4729 3.14201 15.44 3.11011 15.4 3.09001C15.2971 3.04087 15.184 3.01694 15.07 3.02006H13.52C13.4375 3.01551 13.356 3.04025 13.29 3.09001C13.2615 3.11213 13.2391 3.14132 13.2251 3.17461C13.2111 3.20789 13.2059 3.2442 13.21 3.28007C13.21 3.39007 13.21 3.45002 13.31 3.47002C13.4157 3.49028 13.5243 3.49028 13.63 3.47002H14.63L14.47 3.6801L14.21 3.97002L13.87 4.35002L13.46 4.80009L13.19 5.11003C13.1401 5.16665 13.1125 5.23962 13.1125 5.31511C13.1125 5.39059 13.1401 5.46344 13.19 5.52006C13.2743 5.57998 13.377 5.60825 13.48 5.60002H15.31C15.3979 5.61147 15.4869 5.59017 15.56 5.54008C15.589 5.51785 15.6123 5.48902 15.628 5.45598C15.6436 5.42293 15.6512 5.38656 15.65 5.35002C15.6654 5.3012 15.6654 5.24894 15.65 5.20012Z" fill="white"/>
<path d="M14.5499 10.49C14.5079 10.4441 14.4529 10.4119 14.3922 10.3976C14.3316 10.3833 14.2681 10.3877 14.2099 10.4101C12.9661 10.9286 11.5943 11.0582 10.2753 10.7818C8.95639 10.5054 7.75207 9.83591 6.82106 8.8616C5.89005 7.88729 5.27603 6.65379 5.05983 5.32363C4.84363 3.99348 5.03543 2.62907 5.60994 1.41006C5.63726 1.35331 5.6466 1.28953 5.6368 1.22732C5.627 1.16511 5.59851 1.1074 5.55507 1.06179C5.51164 1.01619 5.45536 0.984889 5.3937 0.97207C5.33204 0.959252 5.26793 0.965499 5.20992 0.990015C4.1118 1.44266 3.14074 2.15642 2.38094 3.06936C1.62114 3.9823 1.09554 5.06685 0.849811 6.22891C0.604086 7.39096 0.645656 8.59545 0.970844 9.73782C1.29603 10.8802 1.89502 11.9259 2.7159 12.7843C3.53678 13.6428 4.55473 14.2879 5.68142 14.6638C6.8081 15.0398 8.00954 15.1351 9.18142 14.9416C10.3533 14.748 11.4602 14.2715 12.4062 13.5532C13.3522 12.835 14.1087 11.8969 14.6099 10.8201C14.6315 10.7649 14.6372 10.7048 14.6266 10.6465C14.616 10.5882 14.5895 10.5341 14.5499 10.49ZM7.98995 14.49C6.51259 14.4876 5.0777 13.9955 3.90981 13.0907C2.74192 12.186 1.90689 10.9197 1.53542 9.48977C1.16394 8.05988 1.277 6.54707 1.85683 5.18826C2.43666 3.82944 3.45058 2.70119 4.73995 1.98001C4.37141 3.07783 4.2697 4.24765 4.44326 5.3926C4.61682 6.53756 5.06059 7.62471 5.73793 8.56399C6.41527 9.50327 7.30665 10.2677 8.33821 10.794C9.36978 11.3202 10.5119 11.593 11.6699 11.59C12.3457 11.5901 13.0184 11.4994 13.6699 11.3201C13.0637 12.2775 12.2247 13.0657 11.2315 13.6112C10.2383 14.1568 9.12314 14.442 7.98995 14.4401V14.49Z" fill="white"/>
</svg>
