<svg width="14" height="11" viewBox="0 0 14 11" fill="none" xmlns="http://www.w3.org/2000/svg">
<path d="M10.9101 4.89001C10.7719 4.89016 10.6392 4.83637 10.5401 4.74005C10.4854 4.69406 10.4414 4.63662 10.4113 4.57184C10.3811 4.50706 10.3655 4.43651 10.3655 4.36505C10.3655 4.29359 10.3811 4.22298 10.4113 4.1582C10.4414 4.09342 10.4854 4.03605 10.5401 3.99005L11.8101 2.71002L10.5401 1.44C10.4909 1.39076 10.4518 1.33229 10.4251 1.26794C10.3985 1.2036 10.3848 1.13465 10.3848 1.065C10.3848 0.995359 10.3985 0.926403 10.4251 0.862061C10.4518 0.797718 10.4909 0.739248 10.5401 0.690002C10.5893 0.640757 10.6478 0.601725 10.7122 0.575073C10.7765 0.548422 10.8455 0.534668 10.9151 0.534668C10.9847 0.534668 11.0537 0.548422 11.118 0.575073C11.1824 0.601725 11.2409 0.640757 11.2901 0.690002L12.9401 2.34003C12.9919 2.38779 13.0332 2.44577 13.0615 2.51031C13.0898 2.57486 13.1044 2.64456 13.1044 2.71503C13.1044 2.7855 13.0898 2.8552 13.0615 2.91974C13.0332 2.98428 12.9919 3.04227 12.9401 3.09003L11.2901 4.74005C11.1795 4.8238 11.0481 4.87563 10.9101 4.89001Z" fill="url(#paint0_linear_454_4310)"/>
<path d="M1.41001 6.57995C1.34004 6.58131 1.27052 6.5685 1.2056 6.54235C1.14069 6.5162 1.08169 6.47721 1.0322 6.42772C0.982714 6.37824 0.943732 6.3193 0.917578 6.25438C0.891425 6.18947 0.878622 6.11995 0.879981 6.04998C0.877317 5.53623 0.976723 5.02708 1.1724 4.55205C1.36808 4.07703 1.65613 3.64558 2.01987 3.28277C2.38361 2.91996 2.81583 2.63299 3.29136 2.43853C3.76688 2.24407 4.27628 2.14597 4.79001 2.14995H12.53C12.599 2.14713 12.6679 2.15863 12.7323 2.18377C12.7966 2.2089 12.8551 2.24715 12.904 2.29601C12.9528 2.34487 12.991 2.40328 13.0162 2.46764C13.0413 2.53201 13.0528 2.60093 13.05 2.66997C13.0528 2.73946 13.0412 2.80877 13.0162 2.87365C12.9912 2.93853 12.9532 2.99759 12.9045 3.04723C12.8558 3.09687 12.7974 3.13602 12.733 3.16228C12.6686 3.18855 12.5995 3.20136 12.53 3.19994H4.79001C4.4227 3.19175 4.05752 3.25808 3.71653 3.39489C3.37554 3.53169 3.0658 3.73616 2.80601 3.99596C2.54621 4.25576 2.34174 4.56549 2.20493 4.90648C2.06813 5.24747 2.00179 5.61265 2.00999 5.97997C2.01773 6.06069 2.00755 6.14212 1.98014 6.21844C1.95272 6.29475 1.90875 6.36404 1.85142 6.42138C1.79408 6.47872 1.72479 6.52269 1.64847 6.5501C1.57216 6.57752 1.49073 6.58769 1.41001 6.57995Z" fill="url(#paint1_linear_454_4310)"/>
<path d="M9.17993 9.33001H1.44989C1.30933 9.33001 1.17453 9.27419 1.07513 9.1748C0.97574 9.0754 0.919922 8.9406 0.919922 8.80004C0.919922 8.65947 0.97574 8.52462 1.07513 8.42522C1.17453 8.32583 1.30933 8.27001 1.44989 8.27001H9.17993C9.54725 8.27821 9.91237 8.21193 10.2534 8.07512C10.5943 7.93832 10.9041 7.73385 11.1639 7.47405C11.4237 7.21425 11.6282 6.90446 11.765 6.56347C11.9018 6.22248 11.9681 5.85736 11.9599 5.49004C11.9585 5.42051 11.9713 5.35143 11.9976 5.28704C12.0238 5.22265 12.063 5.16429 12.1126 5.11559C12.1622 5.06689 12.2213 5.02881 12.2862 5.00377C12.3511 4.97874 12.4204 4.96728 12.4899 4.97002C12.559 4.9672 12.6278 4.9787 12.6922 5.00384C12.7566 5.02897 12.815 5.06716 12.8639 5.11602C12.9128 5.16488 12.9509 5.22334 12.9761 5.28771C13.0012 5.35208 13.0127 5.421 13.0099 5.49004C13.0222 5.99683 12.9316 6.50082 12.7436 6.97161C12.5556 7.44239 12.2741 7.87013 11.9161 8.22906C11.5581 8.58798 11.1311 8.87064 10.6608 9.05987C10.1905 9.24909 9.68675 9.34097 9.17993 9.33001Z" fill="url(#paint2_linear_454_4310)"/>
<path d="M3.1001 10.98C2.96029 10.9736 2.82658 10.9208 2.72009 10.83L1.07007 9.17999C1.01518 9.13305 0.971134 9.07475 0.940918 9.00916C0.910701 8.94356 0.89502 8.87221 0.89502 8.79999C0.89502 8.72776 0.910701 8.65636 0.940918 8.59076C0.971134 8.52516 1.01518 8.46692 1.07007 8.41998L2.72009 6.76996C2.76785 6.71814 2.82584 6.67679 2.89038 6.6485C2.95492 6.62021 3.02462 6.60559 3.09509 6.60559C3.16556 6.60559 3.23526 6.62021 3.2998 6.6485C3.36435 6.67679 3.42233 6.71814 3.47009 6.76996C3.52478 6.81595 3.56872 6.87333 3.59888 6.93811C3.62904 7.00289 3.64471 7.0735 3.64471 7.14496C3.64471 7.21642 3.62904 7.28703 3.59888 7.35181C3.56872 7.41659 3.52478 7.47396 3.47009 7.51996L2.20007 8.79999L3.47009 10.08C3.52478 10.126 3.56872 10.1833 3.59888 10.2481C3.62904 10.3129 3.64471 10.3835 3.64471 10.455C3.64471 10.5264 3.62904 10.597 3.59888 10.6618C3.56872 10.7266 3.52478 10.784 3.47009 10.83C3.42462 10.8824 3.3674 10.9233 3.3031 10.9493C3.2388 10.9754 3.16923 10.9859 3.1001 10.98Z" fill="url(#paint3_linear_454_4310)"/>
<defs>
<linearGradient id="paint0_linear_454_4310" x1="10.3701" y1="2.70001" x2="13.1101" y2="2.70001" gradientUnits="userSpaceOnUse">
<stop stop-color="#DA22FF"/>
<stop offset="1" stop-color="#9733EE"/>
</linearGradient>
<linearGradient id="paint1_linear_454_4310" x1="0.879981" y1="4.35995" x2="13.05" y2="4.35995" gradientUnits="userSpaceOnUse">
<stop stop-color="#DA22FF"/>
<stop offset="1" stop-color="#9733EE"/>
</linearGradient>
<linearGradient id="paint2_linear_454_4310" x1="0.919922" y1="7.15001" x2="13.0199" y2="7.15001" gradientUnits="userSpaceOnUse">
<stop stop-color="#DA22FF"/>
<stop offset="1" stop-color="#9733EE"/>
</linearGradient>
<linearGradient id="paint3_linear_454_4310" x1="0.900058" y1="8.78996" x2="3.64011" y2="8.78996" gradientUnits="userSpaceOnUse">
<stop stop-color="#DA22FF"/>
<stop offset="1" stop-color="#9733EE"/>
</linearGradient>
</defs>
</svg>
