<svg width="16" height="16" viewBox="0 0 16 16" fill="none" xmlns="http://www.w3.org/2000/svg">
<path d="M8 8.18C7.7 5.85 9.73004 6.01997 9.73004 6.01997C9.765 6.72369 9.89278 7.41966 10.11 8.08991C11.2051 10.2199 12.8008 12.0525 14.76 13.43C15.0227 13.5847 15.2317 13.8162 15.3586 14.0933C15.4856 14.3705 15.5245 14.68 15.47 14.9799L15.41 15.28L14.48 15.45C12.9044 15.7373 11.2794 15.5637 9.80005 14.95L3.26001 12.2399C2.39303 11.8934 1.68203 11.2428 1.26001 10.41L2.60004 9.21992C3.20004 6.90992 4.60004 6.60993 4.60004 6.60993C4.83912 7.07756 5.19679 7.47428 5.63727 7.76032C6.07774 8.04637 6.5856 8.21173 7.11005 8.23994C7.51617 8.27605 7.92526 8.22488 8.31 8.08991C8.8869 7.87271 9.52314 7.87271 10.1 8.08991" stroke="white" stroke-width="0.5" stroke-miterlimit="10"/>
<path d="M2.6499 9.21997C3.56335 9.88116 4.53773 10.4538 5.55988 10.9301C6.5408 11.3813 7.48971 11.8991 8.3999 12.48C10.5498 13.8189 12.9197 14.7669 15.3999 15.28" stroke="white" stroke-width="0.5" stroke-miterlimit="10"/>
<path d="M10.78 9.28003L9.72998 10.0601" stroke="white" stroke-width="0.5" stroke-miterlimit="10"/>
<path d="M11.8 10.66L10.8101 11.5" stroke="white" stroke-width="0.5" stroke-miterlimit="10"/>
<path d="M4.65002 6.65002C4.65002 6.65002 4.00004 8.14006 6.29004 11.3101C5.42662 11.9631 4.3726 12.3144 3.29004 12.3101" stroke="white" stroke-width="0.5" stroke-miterlimit="10"/>
<path d="M11.49 2.17004V0.839966" stroke="white" stroke-width="0.5" stroke-miterlimit="10"/>
<path d="M13.6899 3.07996L14.64 2.14001" stroke="white" stroke-width="0.5" stroke-miterlimit="10"/>
<path d="M11.49 3.51001V5.72998" stroke="white" stroke-width="0.5" stroke-miterlimit="10"/>
<path d="M10.11 8.08995C10.5408 8.2959 11.0125 8.40193 11.49 8.40001C12.1552 8.39619 12.8017 8.17993 13.3352 7.7827C13.8688 7.38548 14.2614 6.82814 14.4558 6.19201C14.6503 5.55587 14.6363 4.87419 14.4159 4.24657C14.1956 3.61895 13.7804 3.07812 13.231 2.70311C12.6817 2.3281 12.0268 2.13852 11.362 2.16198C10.6973 2.18544 10.0574 2.4208 9.5358 2.83361C9.01421 3.24641 8.63822 3.81506 8.46268 4.45665C8.28713 5.09825 8.3212 5.77917 8.55997 6.40001" stroke="white" stroke-width="0.5" stroke-miterlimit="10"/>
</svg>
